# xmcd
#
# Track frame offsets:
# 150
# 16177
# 36161
# 53122
# 71608
# 89804
# 107876
# 125944
# 142735
# 161391
# 179118
# 193452
#
# Disc length: 2824 seconds
#
# Revision: 1
# Processed by: cddbd v1.4PL0 Copyright (c) Steve Scherf et al.
# Submitted via: CedeCatalogueitor 2.5 http://usuarios.lycos.es/kakasboy
#
DISCID=b40b060c
DTITLE=David Bisbal - Corazón Latino
DYEAR=1900
DGENRE=
TTITLE0=Ave María
TTITLE1=Digale
TTITLE2=Un Amor Que Vine Y Va
TTITLE3=Fuiste Mía
TTITLE4=Lloraré Las Penas
TTITLE5=Quiero Perderme En Tu Cuerpo
TTITLE6=Como Será
TTITLE7=Vulevo A Tí (con Chenoa)
TTITLE8=Por Ti
TTITLE9=Por Cuanto Tiempo
TTITLE10=Corazón Latino
TTITLE11=El Alma El Pie
EXTD=
EXTT0=
EXTT1=
EXTT2=
EXTT3=
EXTT4=
EXTT5=
EXTT6=
EXTT7=
EXTT8=
EXTT9=
EXTT10=
EXTT11=
PLAYORDER=
